<svg class="marks" width="960" height="585" viewBox="0 0 960 585" version="1.1" xmlns="http://www.w3.org/2000/svg" xmlns:xlink="http://www.w3.org/1999/xlink"><g transform="translate(55,34)"><g class="mark-group role-frame root"><g transform="translate(0,0)"><path class="background" d="M0.5,0.5h900v450h-900Z" style="fill: none; stroke: #ddd;"></path><g><g class="mark-group role-axis"><g transform="translate(0.5,0.5)"><path class="background" d="M0,0h0v0h0Z" style="pointer-events: none; fill: none;"></path><g><g class="mark-rule role-axis-grid" style="pointer-events: none;"><line transform="translate(0,450)" x2="900" y2="0" style="fill: none; stroke: #ddd; stroke-width: 1; opacity: 1;"></line><line transform="translate(0,424)" x2="900" y2="0" style="fill: none; stroke: #ddd; stroke-width: 1; opacity: 1;"></line><line transform="translate(0,399)" x2="900" y2="0" style="fill: none; stroke: #ddd; stroke-width: 1; opacity: 1;"></line><line transform="translate(0,373)" x2="900" y2="0" style="fill: none; stroke: #ddd; stroke-width: 1; opacity: 1;"></line><line transform="translate(0,347)" x2="900" y2="0" style="fill: none; stroke: #ddd; stroke-width: 1; opacity: 1;"></line><line transform="translate(0,321)" x2="900" y2="0" style="fill: none; stroke: #ddd; stroke-width: 1; opacity: 1;"></line><line transform="translate(0,296)" x2="900" y2="0" style="fill: none; stroke: #ddd; stroke-width: 1; opacity: 1;"></line><line transform="translate(0,270)" x2="900" y2="0" style="fill: none; stroke: #ddd; stroke-width: 1; opacity: 1;"></line><line transform="translate(0,244)" x2="900" y2="0" style="fill: none; stroke: #ddd; stroke-width: 1; opacity: 1;"></line><line transform="translate(0,219)" x2="900" y2="0" style="fill: none; stroke: #ddd; stroke-width: 1; opacity: 1;"></line><line transform="translate(0,193)" x2="900" y2="0" style="fill: none; stroke: #ddd; stroke-width: 1; opacity: 1;"></line><line transform="translate(0,167)" x2="900" y2="0" style="fill: none; stroke: #ddd; stroke-width: 1; opacity: 1;"></line><line transform="translate(0,141)" x2="900" y2="0" style="fill: none; stroke: #ddd; stroke-width: 1; opacity: 1;"></line><line transform="translate(0,116)" x2="900" y2="0" style="fill: none; stroke: #ddd; stroke-width: 1; opacity: 1;"></line><line transform="translate(0,90)" x2="900" y2="0" style="fill: none; stroke: #ddd; stroke-width: 1; opacity: 1;"></line><line transform="translate(0,64)" x2="900" y2="0" style="fill: none; stroke: #ddd; stroke-width: 1; opacity: 1;"></line><line transform="translate(0,39)" x2="900" y2="0" style="fill: none; stroke: #ddd; stroke-width: 1; opacity: 1;"></line><line transform="translate(0,13)" x2="900" y2="0" style="fill: none; stroke: #ddd; stroke-width: 1; opacity: 1;"></line></g></g></g></g><g class="mark-rect role-mark marks"><path d="M4.5,56.909685252341944h81v393.09031474765806h-81Z" style="fill: #440154;"></path><path d="M94.5,59.01670955182351h81v390.9832904481765h-81Z" style="fill: #460a5d;"></path><path d="M184.5,101.01156760929615h81v348.98843239070385h-81Z" style="fill: #1f958b;"></path><path d="M274.5,89.79207385763698h81v360.207926142363h-81Z" style="fill: #2b758e;"></path><path d="M364.5,141.6472787302995h81v308.3527212697005h-81Z" style="fill: #fde725;"></path><path d="M454.5,85.33459276213904h81v364.66540723786096h-81Z" style="fill: #31688e;"></path><path d="M544.5,86.02536018414975h81v363.97463981585025h-81Z" style="fill: #306a8e;"></path><path d="M634.5,92.33041516450817h81v357.66958483549183h-81Z" style="fill: #287d8e;"></path><path d="M724.5,107.89312680796417h81v342.10687319203583h-81Z" style="fill: #23a983;"></path><path d="M814.5,135.49584900000792h81v314.5041509999921h-81Z" style="fill: #d0e11c;"></path></g><g class="mark-text role-title" style="pointer-events: none;"><text text-anchor="middle" transform="translate(425,-9)" style="font-family: sans-serif; font-size: 24px; font-weight: bold; fill: #000; opacity: 1;">Average Monthly Dental Insurance Premium by Population Density</text></g><g class="mark-group role-axis"><g transform="translate(0.5,450.5)"><path class="background" d="M0,0h0v0h0Z" style="pointer-events: none; fill: none;"></path><g><g class="mark-rule role-axis-tick" style="pointer-events: none;"><line transform="translate(44,0)" x2="0" y2="5" style="fill: none; stroke: #888; stroke-width: 1; opacity: 1;"></line><line transform="translate(134,0)" x2="0" y2="5" style="fill: none; stroke: #888; stroke-width: 1; opacity: 1;"></line><line transform="translate(224,0)" x2="0" y2="5" style="fill: none; stroke: #888; stroke-width: 1; opacity: 1;"></line><line transform="translate(314,0)" x2="0" y2="5" style="fill: none; stroke: #888; stroke-width: 1; opacity: 1;"></line><line transform="translate(404,0)" x2="0" y2="5" style="fill: none; stroke: #888; stroke-width: 1; opacity: 1;"></line><line transform="translate(494,0)" x2="0" y2="5" style="fill: none; stroke: #888; stroke-width: 1; opacity: 1;"></line><line transform="translate(584,0)" x2="0" y2="5" style="fill: none; stroke: #888; stroke-width: 1; opacity: 1;"></line><line transform="translate(674,0)" x2="0" y2="5" style="fill: none; stroke: #888; stroke-width: 1; opacity: 1;"></line><line transform="translate(764,0)" x2="0" y2="5" style="fill: none; stroke: #888; stroke-width: 1; opacity: 1;"></line><line transform="translate(854,0)" x2="0" y2="5" style="fill: none; stroke: #888; stroke-width: 1; opacity: 1;"></line></g><g class="mark-text role-axis-label" style="pointer-events: none;"><text text-anchor="end" transform="translate(44,7) rotate(270) translate(0,5)" style="font-family: sans-serif; font-size: 16px; fill: #000; opacity: 1;">0 - 37</text><text text-anchor="end" transform="translate(134,7) rotate(270) translate(0,5)" style="font-family: sans-serif; font-size: 16px; fill: #000; opacity: 1;">37 - 58</text><text text-anchor="end" transform="translate(224,7) rotate(270) translate(0,5)" style="font-family: sans-serif; font-size: 16px; fill: #000; opacity: 1;">58 - 90</text><text text-anchor="end" transform="translate(314,7) rotate(270) translate(0,5)" style="font-family: sans-serif; font-size: 16px; fill: #000; opacity: 1;">90 - 110</text><text text-anchor="end" transform="translate(404,7) rotate(270) translate(0,5)" style="font-family: sans-serif; font-size: 16px; fill: #000; opacity: 1;">110 - 165</text><text text-anchor="end" transform="translate(494,7) rotate(270) translate(0,5)" style="font-family: sans-serif; font-size: 16px; fill: #000; opacity: 1;">165 - 185</text><text text-anchor="end" transform="translate(584,7) rotate(270) translate(0,5)" style="font-family: sans-serif; font-size: 16px; fill: #000; opacity: 1;">185 - 210</text><text text-anchor="end" transform="translate(674,7) rotate(270) translate(0,5)" style="font-family: sans-serif; font-size: 16px; fill: #000; opacity: 1;">210 - 220</text><text text-anchor="end" transform="translate(764,7) rotate(270) translate(0,5)" style="font-family: sans-serif; font-size: 16px; fill: #000; opacity: 1;">220 - 286</text><text text-anchor="end" transform="translate(854,7) rotate(270) translate(0,5)" style="font-family: sans-serif; font-size: 16px; fill: #000; opacity: 1;">286+</text></g><g class="mark-rule role-axis-domain" style="pointer-events: none;"><line transform="translate(0,0)" x2="900" y2="0" style="fill: none; stroke: #888; stroke-width: 1; opacity: 1;"></line></g><g class="mark-text role-axis-title" style="pointer-events: none;"><text text-anchor="middle" transform="translate(450,90.609375)" style="font-family: sans-serif; font-size: 14px; font-weight: bold; fill: #000; opacity: 1;">Population density per square mile</text></g></g></g></g><g class="mark-group role-axis"><g transform="translate(0.5,0.5)"><path class="background" d="M0,0h0v0h0Z" style="pointer-events: none; fill: none;"></path><g><g class="mark-rule role-axis-tick" style="pointer-events: none;"><line transform="translate(0,450)" x2="-5" y2="0" style="fill: none; stroke: #888; stroke-width: 1; opacity: 1;"></line><line transform="translate(0,424)" x2="-5" y2="0" style="fill: none; stroke: #888; stroke-width: 1; opacity: 1;"></line><line transform="translate(0,399)" x2="-5" y2="0" style="fill: none; stroke: #888; stroke-width: 1; opacity: 1;"></line><line transform="translate(0,373)" x2="-5" y2="0" style="fill: none; stroke: #888; stroke-width: 1; opacity: 1;"></line><line transform="translate(0,347)" x2="-5" y2="0" style="fill: none; stroke: #888; stroke-width: 1; opacity: 1;"></line><line transform="translate(0,321)" x2="-5" y2="0" style="fill: none; stroke: #888; stroke-width: 1; opacity: 1;"></line><line transform="translate(0,296)" x2="-5" y2="0" style="fill: none; stroke: #888; stroke-width: 1; opacity: 1;"></line><line transform="translate(0,270)" x2="-5" y2="0" style="fill: none; stroke: #888; stroke-width: 1; opacity: 1;"></line><line transform="translate(0,244)" x2="-5" y2="0" style="fill: none; stroke: #888; stroke-width: 1; opacity: 1;"></line><line transform="translate(0,219)" x2="-5" y2="0" style="fill: none; stroke: #888; stroke-width: 1; opacity: 1;"></line><line transform="translate(0,193)" x2="-5" y2="0" style="fill: none; stroke: #888; stroke-width: 1; opacity: 1;"></line><line transform="translate(0,167)" x2="-5" y2="0" style="fill: none; stroke: #888; stroke-width: 1; opacity: 1;"></line><line transform="translate(0,141)" x2="-5" y2="0" style="fill: none; stroke: #888; stroke-width: 1; opacity: 1;"></line><line transform="translate(0,116)" x2="-5" y2="0" style="fill: none; stroke: #888; stroke-width: 1; opacity: 1;"></line><line transform="translate(0,90)" x2="-5" y2="0" style="fill: none; stroke: #888; stroke-width: 1; opacity: 1;"></line><line transform="translate(0,64)" x2="-5" y2="0" style="fill: none; stroke: #888; stroke-width: 1; opacity: 1;"></line><line transform="translate(0,39)" x2="-5" y2="0" style="fill: none; stroke: #888; stroke-width: 1; opacity: 1;"></line><line transform="translate(0,13)" x2="-5" y2="0" style="fill: none; stroke: #888; stroke-width: 1; opacity: 1;"></line></g><g class="mark-text role-axis-label" style="pointer-events: none;"><text text-anchor="end" transform="translate(-7,455)" style="font-family: sans-serif; font-size: 16px; fill: #000; opacity: 1;">0</text><text text-anchor="end" transform="translate(-7,429.2857142857143)" style="font-family: sans-serif; font-size: 16px; fill: #000; opacity: 1;">2</text><text text-anchor="end" transform="translate(-7,403.57142857142856)" style="font-family: sans-serif; font-size: 16px; fill: #000; opacity: 1;">4</text><text text-anchor="end" transform="translate(-7,377.8571428571429)" style="font-family: sans-serif; font-size: 16px; fill: #000; opacity: 1;">6</text><text text-anchor="end" transform="translate(-7,352.14285714285717)" style="font-family: sans-serif; font-size: 16px; fill: #000; opacity: 1;">8</text><text text-anchor="end" transform="translate(-7,326.42857142857144)" style="font-family: sans-serif; font-size: 16px; fill: #000; opacity: 1;">10</text><text text-anchor="end" transform="translate(-7,300.7142857142857)" style="font-family: sans-serif; font-size: 16px; fill: #000; opacity: 1;">12</text><text text-anchor="end" transform="translate(-7,275)" style="font-family: sans-serif; font-size: 16px; fill: #000; opacity: 1;">14</text><text text-anchor="end" transform="translate(-7,249.2857142857143)" style="font-family: sans-serif; font-size: 16px; fill: #000; opacity: 1;">16</text><text text-anchor="end" transform="translate(-7,223.57142857142858)" style="font-family: sans-serif; font-size: 16px; fill: #000; opacity: 1;">18</text><text text-anchor="end" transform="translate(-7,197.8571428571429)" style="font-family: sans-serif; font-size: 16px; fill: #000; opacity: 1;">20</text><text text-anchor="end" transform="translate(-7,172.14285714285717)" style="font-family: sans-serif; font-size: 16px; fill: #000; opacity: 1;">22</text><text text-anchor="end" transform="translate(-7,146.42857142857144)" style="font-family: sans-serif; font-size: 16px; fill: #000; opacity: 1;">24</text><text text-anchor="end" transform="translate(-7,120.71428571428572)" style="font-family: sans-serif; font-size: 16px; fill: #000; opacity: 1;">26</text><text text-anchor="end" transform="translate(-7,95)" style="font-family: sans-serif; font-size: 16px; fill: #000; opacity: 1;">28</text><text text-anchor="end" transform="translate(-7,69.28571428571433)" style="font-family: sans-serif; font-size: 16px; fill: #000; opacity: 1;">30</text><text text-anchor="end" transform="translate(-7,43.57142857142861)" style="font-family: sans-serif; font-size: 16px; fill: #000; opacity: 1;">32</text><text text-anchor="end" transform="translate(-7,17.85714285714289)" style="font-family: sans-serif; font-size: 16px; fill: #000; opacity: 1;">34</text></g><g class="mark-rule role-axis-domain" style="pointer-events: none;"><line transform="translate(0,450)" x2="0" y2="-450" style="fill: none; stroke: #888; stroke-width: 1; opacity: 1;"></line></g><g class="mark-text role-axis-title" style="pointer-events: none;"><text text-anchor="middle" transform="translate(-34,225) rotate(-90) translate(0,-3)" style="font-family: sans-serif; font-size: 14px; font-weight: bold; fill: #000; opacity: 1;">Average monthly premium</text></g></g></g></g></g></g></g></g></svg>