<svg class="marks" width="1022" height="529" viewBox="0 0 1022 529" version="1.1" xmlns="http://www.w3.org/2000/svg" xmlns:xlink="http://www.w3.org/1999/xlink"><g transform="translate(117,37)"><g class="mark-group role-frame root"><g transform="translate(0,0)"><path class="background" d="M0.5,0.5h900v450h-900Z" style="fill: none; stroke: #ddd;"></path><g><g class="mark-group role-axis"><g transform="translate(0.5,450.5)"><path class="background" d="M0,0h0v0h0Z" style="pointer-events: none; fill: none;"></path><g><g class="mark-rule role-axis-grid" style="pointer-events: none;"><line transform="translate(0,0)" x2="0" y2="-450" style="fill: none; stroke: #ddd; stroke-width: 1; opacity: 1;"></line><line transform="translate(33,0)" x2="0" y2="-450" style="fill: none; stroke: #ddd; stroke-width: 1; opacity: 1;"></line><line transform="translate(65,0)" x2="0" y2="-450" style="fill: none; stroke: #ddd; stroke-width: 1; opacity: 1;"></line><line transform="translate(98,0)" x2="0" y2="-450" style="fill: none; stroke: #ddd; stroke-width: 1; opacity: 1;"></line><line transform="translate(131,0)" x2="0" y2="-450" style="fill: none; stroke: #ddd; stroke-width: 1; opacity: 1;"></line><line transform="translate(164,0)" x2="0" y2="-450" style="fill: none; stroke: #ddd; stroke-width: 1; opacity: 1;"></line><line transform="translate(196,0)" x2="0" y2="-450" style="fill: none; stroke: #ddd; stroke-width: 1; opacity: 1;"></line><line transform="translate(229,0)" x2="0" y2="-450" style="fill: none; stroke: #ddd; stroke-width: 1; opacity: 1;"></line><line transform="translate(262,0)" x2="0" y2="-450" style="fill: none; stroke: #ddd; stroke-width: 1; opacity: 1;"></line><line transform="translate(295,0)" x2="0" y2="-450" style="fill: none; stroke: #ddd; stroke-width: 1; opacity: 1;"></line><line transform="translate(327,0)" x2="0" y2="-450" style="fill: none; stroke: #ddd; stroke-width: 1; opacity: 1;"></line><line transform="translate(360,0)" x2="0" y2="-450" style="fill: none; stroke: #ddd; stroke-width: 1; opacity: 1;"></line><line transform="translate(393,0)" x2="0" y2="-450" style="fill: none; stroke: #ddd; stroke-width: 1; opacity: 1;"></line><line transform="translate(425,0)" x2="0" y2="-450" style="fill: none; stroke: #ddd; stroke-width: 1; opacity: 1;"></line><line transform="translate(458,0)" x2="0" y2="-450" style="fill: none; stroke: #ddd; stroke-width: 1; opacity: 1;"></line><line transform="translate(491,0)" x2="0" y2="-450" style="fill: none; stroke: #ddd; stroke-width: 1; opacity: 1;"></line><line transform="translate(524,0)" x2="0" y2="-450" style="fill: none; stroke: #ddd; stroke-width: 1; opacity: 1;"></line><line transform="translate(556,0)" x2="0" y2="-450" style="fill: none; stroke: #ddd; stroke-width: 1; opacity: 1;"></line><line transform="translate(589,0)" x2="0" y2="-450" style="fill: none; stroke: #ddd; stroke-width: 1; opacity: 1;"></line><line transform="translate(622,0)" x2="0" y2="-450" style="fill: none; stroke: #ddd; stroke-width: 1; opacity: 1;"></line><line transform="translate(655,0)" x2="0" y2="-450" style="fill: none; stroke: #ddd; stroke-width: 1; opacity: 1;"></line><line transform="translate(687,0)" x2="0" y2="-450" style="fill: none; stroke: #ddd; stroke-width: 1; opacity: 1;"></line><line transform="translate(720,0)" x2="0" y2="-450" style="fill: none; stroke: #ddd; stroke-width: 1; opacity: 1;"></line><line transform="translate(753,0)" x2="0" y2="-450" style="fill: none; stroke: #ddd; stroke-width: 1; opacity: 1;"></line><line transform="translate(785,0)" x2="0" y2="-450" style="fill: none; stroke: #ddd; stroke-width: 1; opacity: 1;"></line><line transform="translate(818,0)" x2="0" y2="-450" style="fill: none; stroke: #ddd; stroke-width: 1; opacity: 1;"></line><line transform="translate(851,0)" x2="0" y2="-450" style="fill: none; stroke: #ddd; stroke-width: 1; opacity: 1;"></line><line transform="translate(884,0)" x2="0" y2="-450" style="fill: none; stroke: #ddd; stroke-width: 1; opacity: 1;"></line></g></g></g></g><g class="mark-rect role-mark marks"><path d="M0,0.5921052631578902h403.62771068151534v10.657894736842106h-403.62771068151534Z" style="fill: #c5e021;"></path><path d="M0,12.434210526315786h849.849135249095v10.657894736842106h-849.849135249095Z" style="fill: #440154;"></path><path d="M0,24.27631578947368h489.4122189747065v10.657894736842106h-489.4122189747065Z" style="fill: #56c667;"></path><path d="M0,36.118421052631575h446.6659936879763v10.657894736842106h-446.6659936879763Z" style="fill: #89d548;"></path><path d="M0,47.96052631578947h439.85049504950496v10.657894736842106h-439.85049504950496Z" style="fill: #93d741;"></path><path d="M0,59.80263157894737h388.22539286433465v10.657894736842106h-388.22539286433465Z" style="fill: #dae319;"></path><path d="M0,71.64473684210526h465.0468355392029v10.657894736842106h-465.0468355392029Z" style="fill: #73d056;"></path><path d="M0,83.48684210526316h461.86304594062597v10.657894736842106h-461.86304594062597Z" style="fill: #75d054;"></path><path d="M0,95.32894736842105h463.24045067471843v10.657894736842106h-463.24045067471843Z" style="fill: #73d056;"></path><path d="M0,107.17105263157895h517.9748108695169v10.657894736842106h-517.9748108695169Z" style="fill: #3aba76;"></path><path d="M0,119.01315789473685h460.093881358941v10.657894736842106h-460.093881358941Z" style="fill: #77d153;"></path><path d="M0,130.85526315789474h359.7766685206907v10.657894736842106h-359.7766685206907Z" style="fill: #fde725;"></path><path d="M0,142.69736842105263h475.731148053829v10.657894736842106h-475.731148053829Z" style="fill: #65cb5e;"></path><path d="M0,154.53947368421052h529.6075864729328v10.657894736842106h-529.6075864729328Z" style="fill: #31b57b;"></path><path d="M0,166.38157894736844h468.8369540213022v10.657894736842106h-468.8369540213022Z" style="fill: #6ece58;"></path><path d="M0,178.22368421052633h458.53812090743554v10.657894736842106h-458.53812090743554Z" style="fill: #7ad151;"></path><path d="M0,190.06578947368422h442.2522553639459v10.657894736842106h-442.2522553639459Z" style="fill: #8ed645;"></path><path d="M0,201.9078947368421h645.5267326732658v10.657894736842106h-645.5267326732658Z" style="fill: #287c8e;"></path><path d="M0,213.75h448.4351611658862v10.657894736842106h-448.4351611658862Z" style="fill: #86d549;"></path><path d="M0,225.59210526315792h525.350729412564v10.657894736842106h-525.350729412564Z" style="fill: #34b679;"></path><path d="M0,237.4342105263158h572.9203960396039v10.657894736842106h-572.9203960396039Z" style="fill: #1fa088;"></path><path d="M0,249.2763157894737h510.73021532922525v10.657894736842106h-510.73021532922525Z" style="fill: #40bd72;"></path><path d="M0,261.11842105263156h403.2521704443163v10.657894736842106h-403.2521704443163Z" style="fill: #c5e021;"></path><path d="M0,272.9605263157895h541.7500701765106v10.657894736842106h-541.7500701765106Z" style="fill: #28ae80;"></path><path d="M0,284.8026315789474h508.288930591172v10.657894736842106h-508.288930591172Z" style="fill: #42be71;"></path><path d="M0,296.6447368421053h419.0662666603931v10.657894736842106h-419.0662666603931Z" style="fill: #b0dd2f;"></path><path d="M0,308.4868421052631h472.96547044314633v10.657894736842106h-472.96547044314633Z" style="fill: #67cc5c;"></path><path d="M0,320.32894736842104h572.1722201758645v10.657894736842106h-572.1722201758645Z" style="fill: #1fa188;"></path><path d="M0,332.17105263157896h393.48258325832455v10.657894736842106h-393.48258325832455Z" style="fill: #d2e21b;"></path><path d="M0,344.0131578947369h442.1843220685709v10.657894736842106h-442.1843220685709Z" style="fill: #8ed645;"></path><path d="M0,355.8552631578948h483.900515506096v10.657894736842106h-483.900515506096Z" style="fill: #5cc863;"></path><path d="M0,367.6973684210526h413.1534880937941v10.657894736842106h-413.1534880937941Z" style="fill: #b8de29;"></path><path d="M0,379.5394736842105h450.4936576078469v10.657894736842106h-450.4936576078469Z" style="fill: #84d44b;"></path><path d="M0,391.38157894736844h435.50991125637705v10.657894736842106h-435.50991125637705Z" style="fill: #98d83e;"></path><path d="M0,403.22368421052636h427.7575771694792v10.657894736842106h-427.7575771694792Z" style="fill: #a2da37;"></path><path d="M0,415.0657894736843h372.3582816463469v10.657894736842106h-372.3582816463469Z" style="fill: #efe51c;"></path><path d="M0,426.9078947368421h523.7887915910248v10.657894736842106h-523.7887915910248Z" style="fill: #35b779;"></path><path d="M0,438.75h552.3891089108918v10.657894736842106h-552.3891089108918Z" style="fill: #24aa83;"></path></g><g class="mark-text role-title" style="pointer-events: none;"><text text-anchor="middle" transform="translate(394.3203125,-11.078947368421057)" style="font-family: sans-serif; font-size: 24px; font-weight: bold; fill: #000; opacity: 1;">Average Monthly Dental Insurance Premium by State</text></g><g class="mark-group role-axis"><g transform="translate(0.5,450.5)"><path class="background" d="M0,0h0v0h0Z" style="pointer-events: none; fill: none;"></path><g><g class="mark-rule role-axis-tick" style="pointer-events: none;"><line transform="translate(0,0)" x2="0" y2="5" style="fill: none; stroke: #888; stroke-width: 1; opacity: 1;"></line><line transform="translate(33,0)" x2="0" y2="5" style="fill: none; stroke: #888; stroke-width: 1; opacity: 1;"></line><line transform="translate(65,0)" x2="0" y2="5" style="fill: none; stroke: #888; stroke-width: 1; opacity: 1;"></line><line transform="translate(98,0)" x2="0" y2="5" style="fill: none; stroke: #888; stroke-width: 1; opacity: 1;"></line><line transform="translate(131,0)" x2="0" y2="5" style="fill: none; stroke: #888; stroke-width: 1; opacity: 1;"></line><line transform="translate(164,0)" x2="0" y2="5" style="fill: none; stroke: #888; stroke-width: 1; opacity: 1;"></line><line transform="translate(196,0)" x2="0" y2="5" style="fill: none; stroke: #888; stroke-width: 1; opacity: 1;"></line><line transform="translate(229,0)" x2="0" y2="5" style="fill: none; stroke: #888; stroke-width: 1; opacity: 1;"></line><line transform="translate(262,0)" x2="0" y2="5" style="fill: none; stroke: #888; stroke-width: 1; opacity: 1;"></line><line transform="translate(295,0)" x2="0" y2="5" style="fill: none; stroke: #888; stroke-width: 1; opacity: 1;"></line><line transform="translate(327,0)" x2="0" y2="5" style="fill: none; stroke: #888; stroke-width: 1; opacity: 1;"></line><line transform="translate(360,0)" x2="0" y2="5" style="fill: none; stroke: #888; stroke-width: 1; opacity: 1;"></line><line transform="translate(393,0)" x2="0" y2="5" style="fill: none; stroke: #888; stroke-width: 1; opacity: 1;"></line><line transform="translate(425,0)" x2="0" y2="5" style="fill: none; stroke: #888; stroke-width: 1; opacity: 1;"></line><line transform="translate(458,0)" x2="0" y2="5" style="fill: none; stroke: #888; stroke-width: 1; opacity: 1;"></line><line transform="translate(491,0)" x2="0" y2="5" style="fill: none; stroke: #888; stroke-width: 1; opacity: 1;"></line><line transform="translate(524,0)" x2="0" y2="5" style="fill: none; stroke: #888; stroke-width: 1; opacity: 1;"></line><line transform="translate(556,0)" x2="0" y2="5" style="fill: none; stroke: #888; stroke-width: 1; opacity: 1;"></line><line transform="translate(589,0)" x2="0" y2="5" style="fill: none; stroke: #888; stroke-width: 1; opacity: 1;"></line><line transform="translate(622,0)" x2="0" y2="5" style="fill: none; stroke: #888; stroke-width: 1; opacity: 1;"></line><line transform="translate(655,0)" x2="0" y2="5" style="fill: none; stroke: #888; stroke-width: 1; opacity: 1;"></line><line transform="translate(687,0)" x2="0" y2="5" style="fill: none; stroke: #888; stroke-width: 1; opacity: 1;"></line><line transform="translate(720,0)" x2="0" y2="5" style="fill: none; stroke: #888; stroke-width: 1; opacity: 1;"></line><line transform="translate(753,0)" x2="0" y2="5" style="fill: none; stroke: #888; stroke-width: 1; opacity: 1;"></line><line transform="translate(785,0)" x2="0" y2="5" style="fill: none; stroke: #888; stroke-width: 1; opacity: 1;"></line><line transform="translate(818,0)" x2="0" y2="5" style="fill: none; stroke: #888; stroke-width: 1; opacity: 1;"></line><line transform="translate(851,0)" x2="0" y2="5" style="fill: none; stroke: #888; stroke-width: 1; opacity: 1;"></line><line transform="translate(884,0)" x2="0" y2="5" style="fill: none; stroke: #888; stroke-width: 1; opacity: 1;"></line></g><g class="mark-text role-axis-label" style="pointer-events: none;"><text text-anchor="start" transform="translate(0,16)" style="font-family: sans-serif; font-size: 12px; fill: #000; opacity: 1;">0</text><text text-anchor="middle" transform="translate(32.72727272727273,16)" style="font-family: sans-serif; font-size: 12px; fill: #000; opacity: 1;">2</text><text text-anchor="middle" transform="translate(65.45454545454545,16)" style="font-family: sans-serif; font-size: 12px; fill: #000; opacity: 1;">4</text><text text-anchor="middle" transform="translate(98.18181818181817,16)" style="font-family: sans-serif; font-size: 12px; fill: #000; opacity: 1;">6</text><text text-anchor="middle" transform="translate(130.9090909090909,16)" style="font-family: sans-serif; font-size: 12px; fill: #000; opacity: 1;">8</text><text text-anchor="middle" transform="translate(163.63636363636365,16)" style="font-family: sans-serif; font-size: 12px; fill: #000; opacity: 1;">10</text><text text-anchor="middle" transform="translate(196.36363636363635,16)" style="font-family: sans-serif; font-size: 12px; fill: #000; opacity: 1;">12</text><text text-anchor="middle" transform="translate(229.09090909090907,16)" style="font-family: sans-serif; font-size: 12px; fill: #000; opacity: 1;">14</text><text text-anchor="middle" transform="translate(261.8181818181818,16)" style="font-family: sans-serif; font-size: 12px; fill: #000; opacity: 1;">16</text><text text-anchor="middle" transform="translate(294.54545454545456,16)" style="font-family: sans-serif; font-size: 12px; fill: #000; opacity: 1;">18</text><text text-anchor="middle" transform="translate(327.2727272727273,16)" style="font-family: sans-serif; font-size: 12px; fill: #000; opacity: 1;">20</text><text text-anchor="middle" transform="translate(360,16)" style="font-family: sans-serif; font-size: 12px; fill: #000; opacity: 1;">22</text><text text-anchor="middle" transform="translate(392.7272727272727,16)" style="font-family: sans-serif; font-size: 12px; fill: #000; opacity: 1;">24</text><text text-anchor="middle" transform="translate(425.45454545454544,16)" style="font-family: sans-serif; font-size: 12px; fill: #000; opacity: 1;">26</text><text text-anchor="middle" transform="translate(458.18181818181813,16)" style="font-family: sans-serif; font-size: 12px; fill: #000; opacity: 1;">28</text><text text-anchor="middle" transform="translate(490.9090909090909,16)" style="font-family: sans-serif; font-size: 12px; fill: #000; opacity: 1;">30</text><text text-anchor="middle" transform="translate(523.6363636363636,16)" style="font-family: sans-serif; font-size: 12px; fill: #000; opacity: 1;">32</text><text text-anchor="middle" transform="translate(556.3636363636364,16)" style="font-family: sans-serif; font-size: 12px; fill: #000; opacity: 1;">34</text><text text-anchor="middle" transform="translate(589.0909090909091,16)" style="font-family: sans-serif; font-size: 12px; fill: #000; opacity: 1;">36</text><text text-anchor="middle" transform="translate(621.8181818181819,16)" style="font-family: sans-serif; font-size: 12px; fill: #000; opacity: 1;">38</text><text text-anchor="middle" transform="translate(654.5454545454546,16)" style="font-family: sans-serif; font-size: 12px; fill: #000; opacity: 1;">40</text><text text-anchor="middle" transform="translate(687.2727272727273,16)" style="font-family: sans-serif; font-size: 12px; fill: #000; opacity: 1;">42</text><text text-anchor="middle" transform="translate(720,16)" style="font-family: sans-serif; font-size: 12px; fill: #000; opacity: 1;">44</text><text text-anchor="middle" transform="translate(752.7272727272726,16)" style="font-family: sans-serif; font-size: 12px; fill: #000; opacity: 1;">46</text><text text-anchor="middle" transform="translate(785.4545454545454,16)" style="font-family: sans-serif; font-size: 12px; fill: #000; opacity: 1;">48</text><text text-anchor="middle" transform="translate(818.1818181818181,16)" style="font-family: sans-serif; font-size: 12px; fill: #000; opacity: 1;">50</text><text text-anchor="middle" transform="translate(850.9090909090909,16)" style="font-family: sans-serif; font-size: 12px; fill: #000; opacity: 1;">52</text><text text-anchor="middle" transform="translate(883.6363636363636,16)" style="font-family: sans-serif; font-size: 12px; fill: #000; opacity: 1;">54</text></g><g class="mark-rule role-axis-domain" style="pointer-events: none;"><line transform="translate(0,0)" x2="900" y2="0" style="fill: none; stroke: #888; stroke-width: 1; opacity: 1;"></line></g><g class="mark-text role-axis-title" style="pointer-events: none;"><text text-anchor="middle" transform="translate(450,32)" style="font-family: sans-serif; font-size: 12px; font-weight: bold; fill: #000; opacity: 1;">Average premium per month</text></g></g></g></g><g class="mark-group role-axis"><g transform="translate(0.5,0.5)"><path class="background" d="M0,0h0v0h0Z" style="pointer-events: none; fill: none;"></path><g><g class="mark-rule role-axis-tick" style="pointer-events: none;"><line transform="translate(0,5)" x2="-5" y2="0" style="fill: none; stroke: #888; stroke-width: 1; opacity: 1;"></line><line transform="translate(0,17)" x2="-5" y2="0" style="fill: none; stroke: #888; stroke-width: 1; opacity: 1;"></line><line transform="translate(0,29)" x2="-5" y2="0" style="fill: none; stroke: #888; stroke-width: 1; opacity: 1;"></line><line transform="translate(0,40)" x2="-5" y2="0" style="fill: none; stroke: #888; stroke-width: 1; opacity: 1;"></line><line transform="translate(0,52)" x2="-5" y2="0" style="fill: none; stroke: #888; stroke-width: 1; opacity: 1;"></line><line transform="translate(0,64)" x2="-5" y2="0" style="fill: none; stroke: #888; stroke-width: 1; opacity: 1;"></line><line transform="translate(0,76)" x2="-5" y2="0" style="fill: none; stroke: #888; stroke-width: 1; opacity: 1;"></line><line transform="translate(0,88)" x2="-5" y2="0" style="fill: none; stroke: #888; stroke-width: 1; opacity: 1;"></line><line transform="translate(0,100)" x2="-5" y2="0" style="fill: none; stroke: #888; stroke-width: 1; opacity: 1;"></line><line transform="translate(0,112)" x2="-5" y2="0" style="fill: none; stroke: #888; stroke-width: 1; opacity: 1;"></line><line transform="translate(0,123)" x2="-5" y2="0" style="fill: none; stroke: #888; stroke-width: 1; opacity: 1;"></line><line transform="translate(0,135)" x2="-5" y2="0" style="fill: none; stroke: #888; stroke-width: 1; opacity: 1;"></line><line transform="translate(0,147)" x2="-5" y2="0" style="fill: none; stroke: #888; stroke-width: 1; opacity: 1;"></line><line transform="translate(0,159)" x2="-5" y2="0" style="fill: none; stroke: #888; stroke-width: 1; opacity: 1;"></line><line transform="translate(0,171)" x2="-5" y2="0" style="fill: none; stroke: #888; stroke-width: 1; opacity: 1;"></line><line transform="translate(0,183)" x2="-5" y2="0" style="fill: none; stroke: #888; stroke-width: 1; opacity: 1;"></line><line transform="translate(0,194)" x2="-5" y2="0" style="fill: none; stroke: #888; stroke-width: 1; opacity: 1;"></line><line transform="translate(0,206)" x2="-5" y2="0" style="fill: none; stroke: #888; stroke-width: 1; opacity: 1;"></line><line transform="translate(0,218)" x2="-5" y2="0" style="fill: none; stroke: #888; stroke-width: 1; opacity: 1;"></line><line transform="translate(0,230)" x2="-5" y2="0" style="fill: none; stroke: #888; stroke-width: 1; opacity: 1;"></line><line transform="translate(0,242)" x2="-5" y2="0" style="fill: none; stroke: #888; stroke-width: 1; opacity: 1;"></line><line transform="translate(0,254)" x2="-5" y2="0" style="fill: none; stroke: #888; stroke-width: 1; opacity: 1;"></line><line transform="translate(0,265)" x2="-5" y2="0" style="fill: none; stroke: #888; stroke-width: 1; opacity: 1;"></line><line transform="translate(0,277)" x2="-5" y2="0" style="fill: none; stroke: #888; stroke-width: 1; opacity: 1;"></line><line transform="translate(0,289)" x2="-5" y2="0" style="fill: none; stroke: #888; stroke-width: 1; opacity: 1;"></line><line transform="translate(0,301)" x2="-5" y2="0" style="fill: none; stroke: #888; stroke-width: 1; opacity: 1;"></line><line transform="translate(0,313)" x2="-5" y2="0" style="fill: none; stroke: #888; stroke-width: 1; opacity: 1;"></line><line transform="translate(0,325)" x2="-5" y2="0" style="fill: none; stroke: #888; stroke-width: 1; opacity: 1;"></line><line transform="translate(0,337)" x2="-5" y2="0" style="fill: none; stroke: #888; stroke-width: 1; opacity: 1;"></line><line transform="translate(0,348)" x2="-5" y2="0" style="fill: none; stroke: #888; stroke-width: 1; opacity: 1;"></line><line transform="translate(0,360)" x2="-5" y2="0" style="fill: none; stroke: #888; stroke-width: 1; opacity: 1;"></line><line transform="translate(0,372)" x2="-5" y2="0" style="fill: none; stroke: #888; stroke-width: 1; opacity: 1;"></line><line transform="translate(0,384)" x2="-5" y2="0" style="fill: none; stroke: #888; stroke-width: 1; opacity: 1;"></line><line transform="translate(0,396)" x2="-5" y2="0" style="fill: none; stroke: #888; stroke-width: 1; opacity: 1;"></line><line transform="translate(0,408)" x2="-5" y2="0" style="fill: none; stroke: #888; stroke-width: 1; opacity: 1;"></line><line transform="translate(0,419)" x2="-5" y2="0" style="fill: none; stroke: #888; stroke-width: 1; opacity: 1;"></line><line transform="translate(0,431)" x2="-5" y2="0" style="fill: none; stroke: #888; stroke-width: 1; opacity: 1;"></line><line transform="translate(0,443)" x2="-5" y2="0" style="fill: none; stroke: #888; stroke-width: 1; opacity: 1;"></line></g><g class="mark-text role-axis-label" style="pointer-events: none;"><text text-anchor="end" transform="translate(-7,8.921052631578943)" style="font-family: sans-serif; font-size: 12px; fill: #000; opacity: 1;">Alabama</text><text text-anchor="end" transform="translate(-7,20.76315789473684)" style="font-family: sans-serif; font-size: 12px; fill: #000; opacity: 1;">Alaska</text><text text-anchor="end" transform="translate(-7,32.60526315789473)" style="font-family: sans-serif; font-size: 12px; fill: #000; opacity: 1;">Arizona</text><text text-anchor="end" transform="translate(-7,44.44736842105263)" style="font-family: sans-serif; font-size: 12px; fill: #000; opacity: 1;">Arkansas</text><text text-anchor="end" transform="translate(-7,56.28947368421053)" style="font-family: sans-serif; font-size: 12px; fill: #000; opacity: 1;">Delaware</text><text text-anchor="end" transform="translate(-7,68.13157894736842)" style="font-family: sans-serif; font-size: 12px; fill: #000; opacity: 1;">Florida</text><text text-anchor="end" transform="translate(-7,79.97368421052632)" style="font-family: sans-serif; font-size: 12px; fill: #000; opacity: 1;">Georgia</text><text text-anchor="end" transform="translate(-7,91.81578947368422)" style="font-family: sans-serif; font-size: 12px; fill: #000; opacity: 1;">Illinois</text><text text-anchor="end" transform="translate(-7,103.65789473684211)" style="font-family: sans-serif; font-size: 12px; fill: #000; opacity: 1;">Indiana</text><text text-anchor="end" transform="translate(-7,115.5)" style="font-family: sans-serif; font-size: 12px; fill: #000; opacity: 1;">Iowa</text><text text-anchor="end" transform="translate(-7,127.3421052631579)" style="font-family: sans-serif; font-size: 12px; fill: #000; opacity: 1;">Kansas</text><text text-anchor="end" transform="translate(-7,139.18421052631578)" style="font-family: sans-serif; font-size: 12px; fill: #000; opacity: 1;">Kentucky</text><text text-anchor="end" transform="translate(-7,151.02631578947367)" style="font-family: sans-serif; font-size: 12px; fill: #000; opacity: 1;">Louisiana</text><text text-anchor="end" transform="translate(-7,162.86842105263156)" style="font-family: sans-serif; font-size: 12px; fill: #000; opacity: 1;">Maine</text><text text-anchor="end" transform="translate(-7,174.71052631578948)" style="font-family: sans-serif; font-size: 12px; fill: #000; opacity: 1;">Michigan</text><text text-anchor="end" transform="translate(-7,186.55263157894737)" style="font-family: sans-serif; font-size: 12px; fill: #000; opacity: 1;">Mississippi</text><text text-anchor="end" transform="translate(-7,198.39473684210526)" style="font-family: sans-serif; font-size: 12px; fill: #000; opacity: 1;">Missouri</text><text text-anchor="end" transform="translate(-7,210.23684210526315)" style="font-family: sans-serif; font-size: 12px; fill: #000; opacity: 1;">Montana</text><text text-anchor="end" transform="translate(-7,222.07894736842104)" style="font-family: sans-serif; font-size: 12px; fill: #000; opacity: 1;">Nebraska</text><text text-anchor="end" transform="translate(-7,233.92105263157896)" style="font-family: sans-serif; font-size: 12px; fill: #000; opacity: 1;">Nevada</text><text text-anchor="end" transform="translate(-7,245.76315789473685)" style="font-family: sans-serif; font-size: 12px; fill: #000; opacity: 1;">New Hampshire</text><text text-anchor="end" transform="translate(-7,257.60526315789474)" style="font-family: sans-serif; font-size: 12px; fill: #000; opacity: 1;">New Jersey</text><text text-anchor="end" transform="translate(-7,269.4473684210526)" style="font-family: sans-serif; font-size: 12px; fill: #000; opacity: 1;">New Mexico</text><text text-anchor="end" transform="translate(-7,281.2894736842105)" style="font-family: sans-serif; font-size: 12px; fill: #000; opacity: 1;">North Carolina</text><text text-anchor="end" transform="translate(-7,293.13157894736844)" style="font-family: sans-serif; font-size: 12px; fill: #000; opacity: 1;">North Dakota</text><text text-anchor="end" transform="translate(-7,304.97368421052636)" style="font-family: sans-serif; font-size: 12px; fill: #000; opacity: 1;">Ohio</text><text text-anchor="end" transform="translate(-7,316.81578947368416)" style="font-family: sans-serif; font-size: 12px; fill: #000; opacity: 1;">Oklahoma</text><text text-anchor="end" transform="translate(-7,328.6578947368421)" style="font-family: sans-serif; font-size: 12px; fill: #000; opacity: 1;">Oregon</text><text text-anchor="end" transform="translate(-7,340.5)" style="font-family: sans-serif; font-size: 12px; fill: #000; opacity: 1;">Pennsylvania</text><text text-anchor="end" transform="translate(-7,352.3421052631579)" style="font-family: sans-serif; font-size: 12px; fill: #000; opacity: 1;">South Carolina</text><text text-anchor="end" transform="translate(-7,364.18421052631584)" style="font-family: sans-serif; font-size: 12px; fill: #000; opacity: 1;">South Dakota</text><text text-anchor="end" transform="translate(-7,376.02631578947364)" style="font-family: sans-serif; font-size: 12px; fill: #000; opacity: 1;">Tennessee</text><text text-anchor="end" transform="translate(-7,387.86842105263156)" style="font-family: sans-serif; font-size: 12px; fill: #000; opacity: 1;">Texas</text><text text-anchor="end" transform="translate(-7,399.7105263157895)" style="font-family: sans-serif; font-size: 12px; fill: #000; opacity: 1;">Utah</text><text text-anchor="end" transform="translate(-7,411.5526315789474)" style="font-family: sans-serif; font-size: 12px; fill: #000; opacity: 1;">Virginia</text><text text-anchor="end" transform="translate(-7,423.3947368421053)" style="font-family: sans-serif; font-size: 12px; fill: #000; opacity: 1;">West Virginia</text><text text-anchor="end" transform="translate(-7,435.2368421052631)" style="font-family: sans-serif; font-size: 12px; fill: #000; opacity: 1;">Wisconsin</text><text text-anchor="end" transform="translate(-7,447.07894736842104)" style="font-family: sans-serif; font-size: 12px; fill: #000; opacity: 1;">Wyoming</text></g><g class="mark-rule role-axis-domain" style="pointer-events: none;"><line transform="translate(0,0)" x2="0" y2="450" style="fill: none; stroke: #888; stroke-width: 1; opacity: 1;"></line></g><g class="mark-text role-axis-title" style="pointer-events: none;"><text text-anchor="middle" transform="translate(-97.359375,225) rotate(-90) translate(0,-3)" style="font-family: sans-serif; font-size: 12px; font-weight: bold; fill: #000; opacity: 1;">State</text></g></g></g></g></g></g></g></g></svg>