<svg class="marks" width="1098" height="526" viewBox="0 0 1098 526" version="1.1" xmlns="http://www.w3.org/2000/svg" xmlns:xlink="http://www.w3.org/1999/xlink"><g transform="translate(193,34)"><g class="mark-group role-frame root"><g transform="translate(0,0)"><path class="background" d="M0.5,0.5h900v450h-900Z" style="fill: none; stroke: #ddd;"></path><g><g class="mark-group role-axis"><g transform="translate(0.5,450.5)"><path class="background" d="M0,0h0v0h0Z" style="pointer-events: none; fill: none;"></path><g><g class="mark-rule role-axis-grid" style="pointer-events: none;"><line transform="translate(0,0)" x2="0" y2="-450" style="fill: none; stroke: #ddd; stroke-width: 1; opacity: 1;"></line><line transform="translate(51,0)" x2="0" y2="-450" style="fill: none; stroke: #ddd; stroke-width: 1; opacity: 1;"></line><line transform="translate(103,0)" x2="0" y2="-450" style="fill: none; stroke: #ddd; stroke-width: 1; opacity: 1;"></line><line transform="translate(154,0)" x2="0" y2="-450" style="fill: none; stroke: #ddd; stroke-width: 1; opacity: 1;"></line><line transform="translate(206,0)" x2="0" y2="-450" style="fill: none; stroke: #ddd; stroke-width: 1; opacity: 1;"></line><line transform="translate(257,0)" x2="0" y2="-450" style="fill: none; stroke: #ddd; stroke-width: 1; opacity: 1;"></line><line transform="translate(309,0)" x2="0" y2="-450" style="fill: none; stroke: #ddd; stroke-width: 1; opacity: 1;"></line><line transform="translate(360,0)" x2="0" y2="-450" style="fill: none; stroke: #ddd; stroke-width: 1; opacity: 1;"></line><line transform="translate(411,0)" x2="0" y2="-450" style="fill: none; stroke: #ddd; stroke-width: 1; opacity: 1;"></line><line transform="translate(463,0)" x2="0" y2="-450" style="fill: none; stroke: #ddd; stroke-width: 1; opacity: 1;"></line><line transform="translate(514,0)" x2="0" y2="-450" style="fill: none; stroke: #ddd; stroke-width: 1; opacity: 1;"></line><line transform="translate(566,0)" x2="0" y2="-450" style="fill: none; stroke: #ddd; stroke-width: 1; opacity: 1;"></line><line transform="translate(617,0)" x2="0" y2="-450" style="fill: none; stroke: #ddd; stroke-width: 1; opacity: 1;"></line><line transform="translate(669,0)" x2="0" y2="-450" style="fill: none; stroke: #ddd; stroke-width: 1; opacity: 1;"></line><line transform="translate(720,0)" x2="0" y2="-450" style="fill: none; stroke: #ddd; stroke-width: 1; opacity: 1;"></line><line transform="translate(771,0)" x2="0" y2="-450" style="fill: none; stroke: #ddd; stroke-width: 1; opacity: 1;"></line><line transform="translate(823,0)" x2="0" y2="-450" style="fill: none; stroke: #ddd; stroke-width: 1; opacity: 1;"></line><line transform="translate(874,0)" x2="0" y2="-450" style="fill: none; stroke: #ddd; stroke-width: 1; opacity: 1;"></line></g></g></g></g><g class="mark-rect role-mark marks"><path d="M0,1.1250000000000284h482.0668904178556v20.25h-482.0668904178556Z" style="fill: #fde725;"></path><path d="M0,23.62500000000003h523.6814777760142v20.25h-523.6814777760142Z" style="fill: #b2dd2d;"></path><path d="M0,46.12500000000003h554.5627341742954v20.25h-554.5627341742954Z" style="fill: #7ad151;"></path><path d="M0,68.62500000000003h591.5973093461585v20.25h-591.5973093461585Z" style="fill: #42be71;"></path><path d="M0,91.12500000000003h596.4543140028295v20.25h-596.4543140028295Z" style="fill: #3dbc74;"></path><path d="M0,113.62500000000003h601.3290982380627v20.25h-601.3290982380627Z" style="fill: #37b878;"></path><path d="M0,136.12500000000003h606.3852155391385v20.25h-606.3852155391385Z" style="fill: #31b57b;"></path><path d="M0,158.62500000000003h627.1605702670555v20.25h-627.1605702670555Z" style="fill: #22a884;"></path><path d="M0,181.12500000000003h629.1106830271989v20.25h-629.1106830271989Z" style="fill: #21a685;"></path><path d="M0,203.62500000000003h629.2663667041613v20.25h-629.2663667041613Z" style="fill: #21a685;"></path><path d="M0,226.12500000000003h641.5102974934548v20.25h-641.5102974934548Z" style="fill: #1f9f88;"></path><path d="M0,248.62500000000003h648.5453720193244v20.25h-648.5453720193244Z" style="fill: #1f9a8a;"></path><path d="M0,271.125h673.1732673267313v20.25h-673.1732673267313Z" style="fill: #23898e;"></path><path d="M0,293.625h687.046676096182v20.25h-687.046676096182Z" style="fill: #27808e;"></path><path d="M0,316.125h704.0696511845365v20.25h-704.0696511845365Z" style="fill: #2b748e;"></path><path d="M0,338.625h749.3261341302526v20.25h-749.3261341302526Z" style="fill: #3a548c;"></path><path d="M0,361.125h765.5903209521804v20.25h-765.5903209521804Z" style="fill: #3f4889;"></path><path d="M0,383.625h799.5437318072746v20.25h-799.5437318072746Z" style="fill: #472c7a;"></path><path d="M0,406.125h832.2199434229121v20.25h-832.2199434229121Z" style="fill: #470d60;"></path><path d="M0,428.625h843.705747367712v20.25h-843.705747367712Z" style="fill: #440154;"></path></g><g class="mark-text role-title" style="pointer-events: none;"><text text-anchor="middle" transform="translate(356.0791015625,-9)" style="font-family: sans-serif; font-size: 24px; font-weight: bold; fill: #000; opacity: 1;">Average Dental Insurance Premium by Issuer</text></g><g class="mark-group role-axis"><g transform="translate(0.5,450.5)"><path class="background" d="M0,0h0v0h0Z" style="pointer-events: none; fill: none;"></path><g><g class="mark-rule role-axis-tick" style="pointer-events: none;"><line transform="translate(0,0)" x2="0" y2="5" style="fill: none; stroke: #888; stroke-width: 1; opacity: 1;"></line><line transform="translate(51,0)" x2="0" y2="5" style="fill: none; stroke: #888; stroke-width: 1; opacity: 1;"></line><line transform="translate(103,0)" x2="0" y2="5" style="fill: none; stroke: #888; stroke-width: 1; opacity: 1;"></line><line transform="translate(154,0)" x2="0" y2="5" style="fill: none; stroke: #888; stroke-width: 1; opacity: 1;"></line><line transform="translate(206,0)" x2="0" y2="5" style="fill: none; stroke: #888; stroke-width: 1; opacity: 1;"></line><line transform="translate(257,0)" x2="0" y2="5" style="fill: none; stroke: #888; stroke-width: 1; opacity: 1;"></line><line transform="translate(309,0)" x2="0" y2="5" style="fill: none; stroke: #888; stroke-width: 1; opacity: 1;"></line><line transform="translate(360,0)" x2="0" y2="5" style="fill: none; stroke: #888; stroke-width: 1; opacity: 1;"></line><line transform="translate(411,0)" x2="0" y2="5" style="fill: none; stroke: #888; stroke-width: 1; opacity: 1;"></line><line transform="translate(463,0)" x2="0" y2="5" style="fill: none; stroke: #888; stroke-width: 1; opacity: 1;"></line><line transform="translate(514,0)" x2="0" y2="5" style="fill: none; stroke: #888; stroke-width: 1; opacity: 1;"></line><line transform="translate(566,0)" x2="0" y2="5" style="fill: none; stroke: #888; stroke-width: 1; opacity: 1;"></line><line transform="translate(617,0)" x2="0" y2="5" style="fill: none; stroke: #888; stroke-width: 1; opacity: 1;"></line><line transform="translate(669,0)" x2="0" y2="5" style="fill: none; stroke: #888; stroke-width: 1; opacity: 1;"></line><line transform="translate(720,0)" x2="0" y2="5" style="fill: none; stroke: #888; stroke-width: 1; opacity: 1;"></line><line transform="translate(771,0)" x2="0" y2="5" style="fill: none; stroke: #888; stroke-width: 1; opacity: 1;"></line><line transform="translate(823,0)" x2="0" y2="5" style="fill: none; stroke: #888; stroke-width: 1; opacity: 1;"></line><line transform="translate(874,0)" x2="0" y2="5" style="fill: none; stroke: #888; stroke-width: 1; opacity: 1;"></line></g><g class="mark-text role-axis-label" style="pointer-events: none;"><text text-anchor="start" transform="translate(0,16)" style="font-family: sans-serif; font-size: 12px; fill: #000; opacity: 1;">0</text><text text-anchor="middle" transform="translate(51.42857142857142,16)" style="font-family: sans-serif; font-size: 12px; fill: #000; opacity: 1;">2</text><text text-anchor="middle" transform="translate(102.85714285714285,16)" style="font-family: sans-serif; font-size: 12px; fill: #000; opacity: 1;">4</text><text text-anchor="middle" transform="translate(154.28571428571428,16)" style="font-family: sans-serif; font-size: 12px; fill: #000; opacity: 1;">6</text><text text-anchor="middle" transform="translate(205.7142857142857,16)" style="font-family: sans-serif; font-size: 12px; fill: #000; opacity: 1;">8</text><text text-anchor="middle" transform="translate(257.1428571428571,16)" style="font-family: sans-serif; font-size: 12px; fill: #000; opacity: 1;">10</text><text text-anchor="middle" transform="translate(308.57142857142856,16)" style="font-family: sans-serif; font-size: 12px; fill: #000; opacity: 1;">12</text><text text-anchor="middle" transform="translate(360,16)" style="font-family: sans-serif; font-size: 12px; fill: #000; opacity: 1;">14</text><text text-anchor="middle" transform="translate(411.4285714285714,16)" style="font-family: sans-serif; font-size: 12px; fill: #000; opacity: 1;">16</text><text text-anchor="middle" transform="translate(462.85714285714283,16)" style="font-family: sans-serif; font-size: 12px; fill: #000; opacity: 1;">18</text><text text-anchor="middle" transform="translate(514.2857142857142,16)" style="font-family: sans-serif; font-size: 12px; fill: #000; opacity: 1;">20</text><text text-anchor="middle" transform="translate(565.7142857142857,16)" style="font-family: sans-serif; font-size: 12px; fill: #000; opacity: 1;">22</text><text text-anchor="middle" transform="translate(617.1428571428571,16)" style="font-family: sans-serif; font-size: 12px; fill: #000; opacity: 1;">24</text><text text-anchor="middle" transform="translate(668.5714285714286,16)" style="font-family: sans-serif; font-size: 12px; fill: #000; opacity: 1;">26</text><text text-anchor="middle" transform="translate(720,16)" style="font-family: sans-serif; font-size: 12px; fill: #000; opacity: 1;">28</text><text text-anchor="middle" transform="translate(771.4285714285713,16)" style="font-family: sans-serif; font-size: 12px; fill: #000; opacity: 1;">30</text><text text-anchor="middle" transform="translate(822.8571428571428,16)" style="font-family: sans-serif; font-size: 12px; fill: #000; opacity: 1;">32</text><text text-anchor="middle" transform="translate(874.2857142857142,16)" style="font-family: sans-serif; font-size: 12px; fill: #000; opacity: 1;">34</text></g><g class="mark-rule role-axis-domain" style="pointer-events: none;"><line transform="translate(0,0)" x2="900" y2="0" style="fill: none; stroke: #888; stroke-width: 1; opacity: 1;"></line></g><g class="mark-text role-axis-title" style="pointer-events: none;"><text text-anchor="middle" transform="translate(450,32)" style="font-family: sans-serif; font-size: 12px; font-weight: bold; fill: #000; opacity: 1;">Average Monthly Premium</text></g></g></g></g><g class="mark-group role-axis"><g transform="translate(0.5,0.5)"><path class="background" d="M0,0h0v0h0Z" style="pointer-events: none; fill: none;"></path><g><g class="mark-rule role-axis-tick" style="pointer-events: none;"><line transform="translate(0,10)" x2="-5" y2="0" style="fill: none; stroke: #888; stroke-width: 1; opacity: 1;"></line><line transform="translate(0,33)" x2="-5" y2="0" style="fill: none; stroke: #888; stroke-width: 1; opacity: 1;"></line><line transform="translate(0,55)" x2="-5" y2="0" style="fill: none; stroke: #888; stroke-width: 1; opacity: 1;"></line><line transform="translate(0,78)" x2="-5" y2="0" style="fill: none; stroke: #888; stroke-width: 1; opacity: 1;"></line><line transform="translate(0,100)" x2="-5" y2="0" style="fill: none; stroke: #888; stroke-width: 1; opacity: 1;"></line><line transform="translate(0,123)" x2="-5" y2="0" style="fill: none; stroke: #888; stroke-width: 1; opacity: 1;"></line><line transform="translate(0,145)" x2="-5" y2="0" style="fill: none; stroke: #888; stroke-width: 1; opacity: 1;"></line><line transform="translate(0,168)" x2="-5" y2="0" style="fill: none; stroke: #888; stroke-width: 1; opacity: 1;"></line><line transform="translate(0,190)" x2="-5" y2="0" style="fill: none; stroke: #888; stroke-width: 1; opacity: 1;"></line><line transform="translate(0,213)" x2="-5" y2="0" style="fill: none; stroke: #888; stroke-width: 1; opacity: 1;"></line><line transform="translate(0,235)" x2="-5" y2="0" style="fill: none; stroke: #888; stroke-width: 1; opacity: 1;"></line><line transform="translate(0,258)" x2="-5" y2="0" style="fill: none; stroke: #888; stroke-width: 1; opacity: 1;"></line><line transform="translate(0,280)" x2="-5" y2="0" style="fill: none; stroke: #888; stroke-width: 1; opacity: 1;"></line><line transform="translate(0,303)" x2="-5" y2="0" style="fill: none; stroke: #888; stroke-width: 1; opacity: 1;"></line><line transform="translate(0,325)" x2="-5" y2="0" style="fill: none; stroke: #888; stroke-width: 1; opacity: 1;"></line><line transform="translate(0,348)" x2="-5" y2="0" style="fill: none; stroke: #888; stroke-width: 1; opacity: 1;"></line><line transform="translate(0,370)" x2="-5" y2="0" style="fill: none; stroke: #888; stroke-width: 1; opacity: 1;"></line><line transform="translate(0,393)" x2="-5" y2="0" style="fill: none; stroke: #888; stroke-width: 1; opacity: 1;"></line><line transform="translate(0,415)" x2="-5" y2="0" style="fill: none; stroke: #888; stroke-width: 1; opacity: 1;"></line><line transform="translate(0,438)" x2="-5" y2="0" style="fill: none; stroke: #888; stroke-width: 1; opacity: 1;"></line></g><g class="mark-text role-axis-label" style="pointer-events: none;"><text text-anchor="end" transform="translate(-7,14.250000000000028)" style="font-family: sans-serif; font-size: 12px; fill: #000; opacity: 1;">Dominion Dental Services, Inc.</text><text text-anchor="end" transform="translate(-7,36.75000000000003)" style="font-family: sans-serif; font-size: 12px; fill: #000; opacity: 1;">Humana Insurance Company</text><text text-anchor="end" transform="translate(-7,59.25000000000003)" style="font-family: sans-serif; font-size: 12px; fill: #000; opacity: 1;">Alpha Dental Programs, Inc.</text><text text-anchor="end" transform="translate(-7,81.75000000000003)" style="font-family: sans-serif; font-size: 12px; fill: #000; opacity: 1;">DentaQuest USA Insurance Co…</text><text text-anchor="end" transform="translate(-7,104.25000000000003)" style="font-family: sans-serif; font-size: 12px; fill: #000; opacity: 1;">Blue Cross and Blue Shield of …</text><text text-anchor="end" transform="translate(-7,126.75000000000003)" style="font-family: sans-serif; font-size: 12px; fill: #000; opacity: 1;">Dental Care Plus, Inc.</text><text text-anchor="end" transform="translate(-7,149.25000000000003)" style="font-family: sans-serif; font-size: 12px; fill: #000; opacity: 1;">DSM USA Insurance Company,…</text><text text-anchor="end" transform="translate(-7,171.75000000000003)" style="font-family: sans-serif; font-size: 12px; fill: #000; opacity: 1;">Guardian Life Insurance Comp…</text><text text-anchor="end" transform="translate(-7,194.25000000000003)" style="font-family: sans-serif; font-size: 12px; fill: #000; opacity: 1;">Cigna Health and Life Insuranc…</text><text text-anchor="end" transform="translate(-7,216.75000000000003)" style="font-family: sans-serif; font-size: 12px; fill: #000; opacity: 1;">Blue Cross Blue Shield of Texas</text><text text-anchor="end" transform="translate(-7,239.25000000000003)" style="font-family: sans-serif; font-size: 12px; fill: #000; opacity: 1;">DSM USA Insurance Company…</text><text text-anchor="end" transform="translate(-7,261.75)" style="font-family: sans-serif; font-size: 12px; fill: #000; opacity: 1;">The Guardian Life Insurance C…</text><text text-anchor="end" transform="translate(-7,284.25)" style="font-family: sans-serif; font-size: 12px; fill: #000; opacity: 1;">Delta Dental of Nebraska</text><text text-anchor="end" transform="translate(-7,306.75)" style="font-family: sans-serif; font-size: 12px; fill: #000; opacity: 1;">Educators Health Plans Life, A…</text><text text-anchor="end" transform="translate(-7,329.25)" style="font-family: sans-serif; font-size: 12px; fill: #000; opacity: 1;">Delta Dental Insurance Company</text><text text-anchor="end" transform="translate(-7,351.75)" style="font-family: sans-serif; font-size: 12px; fill: #000; opacity: 1;">Renaissance Life &amp; Health Insu…</text><text text-anchor="end" transform="translate(-7,374.25)" style="font-family: sans-serif; font-size: 12px; fill: #000; opacity: 1;">Dentegra Insurance Company</text><text text-anchor="end" transform="translate(-7,396.75)" style="font-family: sans-serif; font-size: 12px; fill: #000; opacity: 1;">BEST Life and Health Insuranc…</text><text text-anchor="end" transform="translate(-7,419.25)" style="font-family: sans-serif; font-size: 12px; fill: #000; opacity: 1;">Delta Dental of Minnesota</text><text text-anchor="end" transform="translate(-7,441.75)" style="font-family: sans-serif; font-size: 12px; fill: #000; opacity: 1;">TRUASSURE INSURANCE C…</text></g><g class="mark-rule role-axis-domain" style="pointer-events: none;"><line transform="translate(0,0)" x2="0" y2="450" style="fill: none; stroke: #888; stroke-width: 1; opacity: 1;"></line></g></g></g></g></g></g></g></g></svg>